<svg id="Layer_1" data-name="Layer 1" xmlns="http://www.w3.org/2000/svg" viewBox="0 0 1584 344"><defs><style>.cls-1{fill:#fff;}</style></defs><title>logo-lockup-white</title><g id="logo-lockup"><path class="cls-1" d="M406.15,109.53l21-10.18,68.27,88.1.6-.19v-3q0-35.92,0-71.85c0-1.93.47-3,2.35-3.86,6.56-2.89,13-6,19.86-9.17V228.23c-4.22,0-8.56-.35-12.82.09-4.5.46-7.08-1.31-9.77-4.82-21.57-28.17-43.38-56.16-65.12-84.2-.51-.65-1.08-1.26-2-2.37v91.34H406.15Z"/><path class="cls-1" d="M1260,230.54c-5-.92-10.09-1.5-15-2.83-25.29-6.9-43-28.1-45.88-54.13-2.07-19,1.58-36.46,13.6-51.53,15-18.86,35.15-26.29,58.91-24.75,14.83,1,28.34,5.44,40,14.89.94.76,1.87,1.54,3,2.44q-7.3,8.69-14.15,16.86c-4.32-2.83-8.17-6-12.55-8.12-36.31-17.34-66.24,8.51-65.53,41.52.23,11.11,3.16,21.37,10.52,29.89,10.3,11.92,23.69,16,39,14.53a52.11,52.11,0,0,0,23.13-7.91,4.21,4.21,0,0,0,2.29-4.1c-.13-7,0-14,0-21.23h-33c.82-1.65,1.41-2.89,2-4.1,1.8-3.44,4-6.72,5.34-10.32,1.7-4.44,4.35-5.8,9.13-5.63,11.63.42,23.28.14,34.92.14H1319c.06,1.07.15,1.89.15,2.71,0,16.38,0,32.76.06,49.13a4.8,4.8,0,0,1-2.18,4.21c-13,10.24-27.66,16.57-44.3,17.9a12.7,12.7,0,0,0-1.9.43Z"/><path class="cls-1" d="M802.69,194.29c.53-1.51.89-2.44,1.19-3.39q14.28-44.39,28.51-88.79c.69-2.18,1.64-2.88,3.94-2.82,6.81.17,13.62.06,20.83.06-15,43.43-30,86.62-44.95,129.9-6.09,0-12.05.09-18-.1-.78,0-1.91-1.31-2.23-2.23q-10.92-31.62-21.68-63.29-4.17-12.21-8.4-24.39c-.21-.6-.52-1.16-1-2.17-3.21,9.35-6.28,18.26-9.33,27.19Q741,195.37,730.41,226.51c-.73,2.15-1.74,2.91-4,2.81-4.63-.21-9.28-.16-13.91,0a3,3,0,0,1-3.46-2.4q-18.69-54.27-37.5-108.51-2.82-8.18-5.64-16.35c-.27-.78-.47-1.58-.77-2.57h24.43l30.65,95.22c.65-2,1.05-3.21,1.45-4.42q14.68-44.42,29.32-88.84c.63-1.92,1.45-2.68,3.55-2.61,4.63.18,9.28.16,13.91,0,2-.07,2.82.56,3.43,2.41q10.78,33,21.73,66,4.19,12.66,8.39,25.3C802.08,192.92,802.27,193.3,802.69,194.29Z"/><path class="cls-1" d="M1171.13,99.34V228.23c-3.39,0-6.81-.4-10.09.08-6.55,1-10.46-1.74-14.43-7-20.85-27.53-42.17-54.7-63.33-82-.51-.66-1.07-1.28-2-2.41V228h-22.39v-3q0-56.22,0-112.45a4,4,0,0,1,2.69-4.25c6.08-2.82,12.06-5.89,18.38-9L1148.64,188c.08-1.61.17-2.56.17-3.51,0-24,0-47.89,0-71.84,0-2.21.58-3.35,2.66-4.25C1157.9,105.6,1164.28,102.52,1171.13,99.34Z"/><path class="cls-1" d="M1493,99.29c22.87,29.52,45.52,58.76,68.18,88l.69-.09V184c0-23.86,0-47.72,0-71.58,0-1.94.48-3,2.36-3.86,6.56-2.89,13-6,19.86-9.16V228.21c-6,0-12,.07-18-.08-.77,0-1.65-1.11-2.24-1.88q-33.27-42.84-66.47-85.71c-.75-1-1.52-1.9-2.87-3.58v91.12H1472v-2.93q0-56.39-.06-112.77a3.76,3.76,0,0,1,2.57-4C1480.62,105.5,1486.67,102.41,1493,99.29Z"/><path class="cls-1" d="M574.42,119.61V153.1h64.5c0,6.47,0,12.6-.08,18.72,0,.52-1.12,1.42-1.76,1.46-2.73.17-5.48.08-8.23.08H574.47v34.37h73.42v20.33h-96.1V99.52h95.27c-3.32,6.48-6.47,12.8-9.85,19-.4.72-2.06,1-3.14,1.06-18.65.06-37.3,0-55.94,0Z"/><path class="cls-1" d="M1444.09,99.54c-3.25,6.36-6.41,12.38-9.4,18.48-.83,1.69-2.07,1.6-3.51,1.6h-59.7v33.44h64.31V173.3h-64.36v34.43h73.42v20.36h-96.09V99.54Z"/><path class="cls-1" d="M935.67,228.05V99.58H1031c-2.38,4.69-5.1,9.14-7,13.93-1.92,5-4.84,6.39-10.15,6.26-17.31-.41-34.64-.16-52-.16h-3.53V153h64.09v20.36H958.33V207.8h73.57v20.25Z"/><path class="cls-1" d="M224.89,114.14,300.7,70.47c.09,2.86.18,5.54.26,8.22q.42,14.73.84,29.46c.19,6.85.34,13.71.53,20.56.25,9.16.55,18.31.8,27.46.2,6.78.34,13.56.53,20.35.26,9.26.55,18.52.81,27.79.14,4.85.24,9.71.37,14.56.29,10.45.57,20.9.9,31.35a1.83,1.83,0,0,1-1.06,1.92c-7.49,4.23-14.94,8.51-22.4,12.77-.35.2-.71.38-1.18.62Q223.94,168.39,166.8,71.34l-.28,0v76.55l25.87-14.64c4.79,8.29,9.54,16.52,14.34,24.85-.39.24-.72.46-1.06.65q-19.18,10.78-38.38,21.55a1.69,1.69,0,0,0-1,1.7c0,7.94,0,15.88,0,23.82q-.08,32.88-.17,65.76,0,10.31,0,20.59-.06,19.69-.17,39.39a1.58,1.58,0,0,1-.5,1.19c-6.28,3.64-12.59,7.24-19,10.94L80.76,229.63l-75,42q-.11-3.89-.22-7.74-.51-16.12-1-32.23c-.21-6.63-.38-13.27-.59-19.9q-.58-18.51-1.19-37c-.21-6.63-.39-13.26-.59-19.89L1.06,119.48C.76,110.22.53,101,.11,91.7A3,3,0,0,1,2,88.47c7.37-4.13,14.68-8.36,22-12.56l.91-.5,112.38,195,.24-.05V197.1l-23.72,13.32C109,202.3,104.23,194.21,99.4,186c.38-.24.7-.45,1-.64q18.14-10.27,36.28-20.53a1.72,1.72,0,0,0,1-1.73c0-10.42.06-20.84.07-31.27q0-28,.05-56.09c0-9.79.06-19.58.08-29.38Q138,29,138,11.65A1.64,1.64,0,0,1,139,10c5.86-3.32,11.71-6.69,17.56-10l.87-.46ZM239.53,139l36.23,61.51.18-.08V118.29ZM30.3,142l-.31.05c1.35,26.89,2.71,53.79,4.07,80.86L66.67,205.1Q48.42,173.46,30.3,142Z"/><path class="cls-1" d="M33,70.71,130.32,15v2.84q0,14.63-.08,29.26a1.44,1.44,0,0,1-.84,1.48L47.72,94.63c-.13.08-.27.14-.52.27Z"/><path class="cls-1" d="M175.66,327c0-.59-.08-.88-.08-1.17q-.09-14.85-.17-29.71a1.44,1.44,0,0,1,.77-1.52q41.58-23.67,83.14-47.4c.1-.06.2-.1.45-.22l13.8,23.83Z"/></g></svg>